<mxfile host="app.diagrams.net" agent="Mozilla/5.0 (Windows NT 10.0; Win64; x64) AppleWebKit/537.36 (KHTML, like Gecko) Chrome/131.0.0.0 Safari/537.36" version="25.0.1">
  <diagram name="PÃ¡gina-1" id="kq7xVQo8810_BG7IiTrB">
    <mxGraphModel dx="794" dy="412" grid="0" gridSize="10" guides="1" tooltips="1" connect="1" arrows="1" fold="1" page="1" pageScale="1" pageWidth="827" pageHeight="1169" background="none" math="0" shadow="0">
      <root>
        <mxCell id="0" />
        <mxCell id="1" parent="0" />
        <mxCell id="kipdyfEvQWOkWlqVfc5R-32" value="" style="html=1;whiteSpace=wrap;fillColor=#004E9E;fontColor=#ffffff;strokeColor=#001DBC;" parent="1" vertex="1">
          <mxGeometry x="80" y="350" width="160" height="25" as="geometry" />
        </mxCell>
        <mxCell id="kipdyfEvQWOkWlqVfc5R-2" value="&lt;p style=&quot;margin: 4px 0px 0px; text-align: center;&quot;&gt;&lt;b style=&quot;&quot;&gt;&lt;font style=&quot;&quot; color=&quot;#ffffff&quot;&gt;dim_clientes&lt;/font&gt;&lt;/b&gt;&lt;/p&gt;&lt;hr size=&quot;1&quot; style=&quot;border-style:solid;&quot;&gt;&lt;p style=&quot;margin-top: 0pt; margin-bottom: 0pt; margin-left: 0in; direction: ltr; unicode-bidi: embed; word-break: normal;&quot;&gt;&lt;span style=&quot;font-size: 9pt; font-family: Aptos;&quot;&gt;&lt;font color=&quot;#0f0f0f&quot;&gt;Sales.Customer&lt;/font&gt;&lt;/span&gt;&lt;/p&gt;&lt;p style=&quot;margin-top: 0pt; margin-bottom: 0pt; margin-left: 0in; direction: ltr; unicode-bidi: embed; word-break: normal;&quot;&gt;&lt;span style=&quot;font-size: 9pt; font-family: Aptos;&quot;&gt;&lt;font color=&quot;#0f0f0f&quot;&gt;Sales.Store&lt;/font&gt;&lt;/span&gt;&lt;/p&gt;&lt;p style=&quot;margin-top: 0pt; margin-bottom: 0pt; margin-left: 0in; direction: ltr; unicode-bidi: embed; word-break: normal;&quot;&gt;&lt;span style=&quot;font-size: 9pt; font-family: Aptos;&quot;&gt;&lt;font color=&quot;#0f0f0f&quot;&gt;Person.Person&lt;/font&gt;&lt;/span&gt;&lt;/p&gt;&lt;p style=&quot;margin:0px;margin-left:8px;&quot;&gt;&lt;font color=&quot;#0f0f0f&quot;&gt;&lt;br&gt;&lt;/font&gt;&lt;br&gt;&lt;br&gt;&lt;br&gt;&lt;br&gt;&lt;/p&gt;" style="verticalAlign=top;align=left;overflow=fill;html=1;whiteSpace=wrap;rounded=0;fillStyle=zigzag-line;fillColor=none;" parent="1" vertex="1">
          <mxGeometry x="80" y="350" width="160" height="100" as="geometry" />
        </mxCell>
        <mxCell id="kipdyfEvQWOkWlqVfc5R-27" value="" style="html=1;whiteSpace=wrap;fillColor=#66B2FF;fontColor=#ffffff;strokeColor=#001DBC;" parent="1" vertex="1">
          <mxGeometry x="334" y="360" width="160" height="25" as="geometry" />
        </mxCell>
        <mxCell id="kipdyfEvQWOkWlqVfc5R-1" value="&lt;p style=&quot;margin: 4px 0px 0px; text-align: center;&quot;&gt;&lt;b style=&quot;&quot;&gt;&lt;font style=&quot;&quot; color=&quot;#ffffff&quot;&gt;fato_vendas&lt;/font&gt;&lt;/b&gt;&lt;/p&gt;&lt;hr size=&quot;1&quot; style=&quot;border-style:solid;&quot;&gt;&lt;p style=&quot;margin:0px;margin-left:8px;&quot;&gt;&lt;span style=&quot;font-size: 10pt; font-family: Aptos;&quot;&gt;Sales.SalesOrderHeader&lt;/span&gt;&lt;br&gt;&lt;span style=&quot;font-size: 10pt; font-family: Aptos;&quot;&gt;Sales.SalesOrderDetail&lt;/span&gt;&lt;br&gt;&lt;br&gt;&lt;/p&gt;" style="verticalAlign=top;align=left;overflow=fill;html=1;whiteSpace=wrap;fillStyle=solid;glass=0;rounded=0;shadow=0;fillColor=none;" parent="1" vertex="1">
          <mxGeometry x="334" y="360" width="160" height="270" as="geometry" />
        </mxCell>
        <mxCell id="kipdyfEvQWOkWlqVfc5R-28" value="" style="html=1;whiteSpace=wrap;fillColor=#004E9E;fontColor=#ffffff;strokeColor=#001DBC;" parent="1" vertex="1">
          <mxGeometry x="590" y="465" width="160" height="25" as="geometry" />
        </mxCell>
        <mxCell id="kipdyfEvQWOkWlqVfc5R-30" value="" style="html=1;whiteSpace=wrap;fillColor=#004E9E;fontColor=#ffffff;strokeColor=#001DBC;" parent="1" vertex="1">
          <mxGeometry x="590" y="340" width="160" height="25" as="geometry" />
        </mxCell>
        <mxCell id="kipdyfEvQWOkWlqVfc5R-25" value="" style="html=1;whiteSpace=wrap;fillColor=#004E9E;fontColor=#ffffff;strokeColor=#001DBC;" parent="1" vertex="1">
          <mxGeometry x="590" y="575" width="160" height="25" as="geometry" />
        </mxCell>
        <mxCell id="kipdyfEvQWOkWlqVfc5R-31" value="" style="html=1;whiteSpace=wrap;fillColor=#004E9E;fontColor=#ffffff;strokeColor=#001DBC;" parent="1" vertex="1">
          <mxGeometry x="80" y="480" width="160" height="25" as="geometry" />
        </mxCell>
        <mxCell id="kipdyfEvQWOkWlqVfc5R-23" value="" style="html=1;whiteSpace=wrap;fillColor=#004E9E;fontColor=#ffffff;strokeColor=#001DBC;" parent="1" vertex="1">
          <mxGeometry x="80" y="590" width="160" height="25" as="geometry" />
        </mxCell>
        <mxCell id="kipdyfEvQWOkWlqVfc5R-12" style="edgeStyle=orthogonalEdgeStyle;rounded=0;orthogonalLoop=1;jettySize=auto;html=1;exitX=1;exitY=0.5;exitDx=0;exitDy=0;entryX=0;entryY=0.25;entryDx=0;entryDy=0;" parent="1" source="kipdyfEvQWOkWlqVfc5R-2" target="kipdyfEvQWOkWlqVfc5R-1" edge="1">
          <mxGeometry relative="1" as="geometry" />
        </mxCell>
        <mxCell id="kipdyfEvQWOkWlqVfc5R-13" style="edgeStyle=orthogonalEdgeStyle;rounded=0;orthogonalLoop=1;jettySize=auto;html=1;exitX=1;exitY=0.5;exitDx=0;exitDy=0;entryX=0;entryY=0.5;entryDx=0;entryDy=0;" parent="1" source="kipdyfEvQWOkWlqVfc5R-3" target="kipdyfEvQWOkWlqVfc5R-1" edge="1">
          <mxGeometry relative="1" as="geometry">
            <mxPoint x="330" y="480" as="targetPoint" />
          </mxGeometry>
        </mxCell>
        <mxCell id="kipdyfEvQWOkWlqVfc5R-3" value="&lt;p style=&quot;margin: 4px 0px 0px; text-align: center;&quot;&gt;&lt;b style=&quot;&quot;&gt;&lt;font style=&quot;&quot; color=&quot;#ffffff&quot;&gt;dim_funcionarios&lt;/font&gt;&lt;/b&gt;&lt;/p&gt;&lt;hr size=&quot;1&quot; style=&quot;border-style:solid;&quot;&gt;&lt;p style=&quot;margin-top: 0pt; margin-bottom: 0pt; margin-left: 0in; direction: ltr; unicode-bidi: embed; word-break: normal;&quot;&gt;&lt;span style=&quot;font-family: Aptos; font-size: 7pt; background-color: initial;&quot;&gt;HumanResources.Employee&lt;/span&gt;&lt;/p&gt;" style="verticalAlign=top;align=left;overflow=fill;html=1;whiteSpace=wrap;rounded=0;fillColor=none;" parent="1" vertex="1">
          <mxGeometry x="80" y="480" width="160" height="85" as="geometry" />
        </mxCell>
        <mxCell id="kipdyfEvQWOkWlqVfc5R-19" style="edgeStyle=orthogonalEdgeStyle;rounded=0;orthogonalLoop=1;jettySize=auto;html=1;entryX=1;entryY=0.5;entryDx=0;entryDy=0;" parent="1" source="kipdyfEvQWOkWlqVfc5R-5" target="kipdyfEvQWOkWlqVfc5R-1" edge="1">
          <mxGeometry relative="1" as="geometry" />
        </mxCell>
        <mxCell id="kipdyfEvQWOkWlqVfc5R-5" value="&lt;p style=&quot;margin: 4px 0px 0px; text-align: center;&quot;&gt;&lt;b style=&quot;&quot;&gt;&lt;font color=&quot;#ffffff&quot;&gt;dim_produto&lt;/font&gt;&lt;/b&gt;&lt;/p&gt;&lt;hr size=&quot;1&quot; style=&quot;border-style:solid;&quot;&gt;&lt;p style=&quot;margin-top: 0pt; margin-bottom: 0pt; margin-left: 0in; direction: ltr; unicode-bidi: embed; word-break: normal;&quot;&gt;&lt;font style=&quot;font-size: 11px;&quot;&gt;&lt;span style=&quot;font-family: Aptos;&quot;&gt;Production.Product&lt;/span&gt;&lt;span style=&quot;font-family: Aptos;&quot;&gt;&lt;br&gt;&lt;/span&gt;&lt;span style=&quot;font-family: Aptos;&quot;&gt;Production.ProductCategory&lt;/span&gt;&lt;/font&gt;&lt;/p&gt;&lt;p style=&quot;margin-top: 0pt; margin-bottom: 0pt; margin-left: 0in; direction: ltr; unicode-bidi: embed; word-break: normal;&quot;&gt;&lt;span style=&quot;font-family: Aptos;&quot;&gt;&lt;font style=&quot;font-size: 11px;&quot;&gt;Production.ProductSubcategory&lt;/font&gt;&lt;/span&gt;&lt;/p&gt;&lt;p style=&quot;margin:0px;margin-left:8px;&quot;&gt;&lt;br&gt;&lt;br&gt;&lt;br&gt;&lt;br&gt;&lt;br&gt;&lt;/p&gt;" style="verticalAlign=top;align=left;overflow=fill;html=1;whiteSpace=wrap;rounded=0;fillColor=none;" parent="1" vertex="1">
          <mxGeometry x="590" y="465" width="160" height="100" as="geometry" />
        </mxCell>
        <mxCell id="kipdyfEvQWOkWlqVfc5R-7" value="&lt;p style=&quot;margin: 4px 0px 0px; text-align: center;&quot;&gt;&lt;b style=&quot;&quot;&gt;&lt;font style=&quot;&quot; color=&quot;#ffffff&quot;&gt;dim_motivos_venda&lt;/font&gt;&lt;/b&gt;&lt;/p&gt;&lt;hr size=&quot;1&quot; style=&quot;border-style:solid;&quot;&gt;&lt;p style=&quot;margin-top: 0pt; margin-bottom: 0pt; margin-left: 0in; direction: ltr; unicode-bidi: embed; word-break: normal;&quot;&gt;&lt;span style=&quot;font-size: 9pt; font-family: Aptos;&quot;&gt;Sales.SalesReason&lt;/span&gt;&lt;span style=&quot;font-size: 9pt; font-family: Aptos;&quot;&gt;&lt;br&gt;&lt;/span&gt;&lt;span style=&quot;font-size: 7pt; font-family: Aptos;&quot;&gt;Sales.SalesOrderHeaderSalesReason&lt;/span&gt;&lt;/p&gt;&lt;p style=&quot;margin:0px;margin-left:8px;&quot;&gt;&lt;br&gt;&lt;br&gt;&lt;br&gt;&lt;br&gt;&lt;br&gt;&lt;/p&gt;" style="verticalAlign=top;align=left;overflow=fill;html=1;whiteSpace=wrap;rounded=0;fillColor=none;" parent="1" vertex="1">
          <mxGeometry x="590" y="575" width="160" height="100" as="geometry" />
        </mxCell>
        <mxCell id="kipdyfEvQWOkWlqVfc5R-18" style="edgeStyle=orthogonalEdgeStyle;rounded=0;orthogonalLoop=1;jettySize=auto;html=1;entryX=1;entryY=0.25;entryDx=0;entryDy=0;" parent="1" source="kipdyfEvQWOkWlqVfc5R-9" target="kipdyfEvQWOkWlqVfc5R-1" edge="1">
          <mxGeometry relative="1" as="geometry" />
        </mxCell>
        <mxCell id="kipdyfEvQWOkWlqVfc5R-9" value="&lt;p style=&quot;margin: 4px 0px 0px; text-align: center;&quot;&gt;&lt;b style=&quot;&quot;&gt;&lt;font color=&quot;#ffffff&quot;&gt;dim_endereco&lt;/font&gt;&lt;/b&gt;&lt;/p&gt;&lt;hr size=&quot;1&quot; style=&quot;border-style:solid;&quot;&gt;&lt;p style=&quot;margin-top: 0pt; margin-bottom: 0pt; margin-left: 0in; direction: ltr; unicode-bidi: embed; word-break: normal;&quot;&gt;&lt;font face=&quot;Aptos&quot;&gt;&lt;span style=&quot;font-size: 11px;&quot;&gt;Person.Address&lt;/span&gt;&lt;/font&gt;&lt;/p&gt;&lt;p style=&quot;margin-top: 0pt; margin-bottom: 0pt; margin-left: 0in; direction: ltr; unicode-bidi: embed; word-break: normal;&quot;&gt;&lt;font face=&quot;Aptos&quot;&gt;&lt;span style=&quot;font-size: 11px;&quot;&gt;Person.StateProvince&lt;/span&gt;&lt;/font&gt;&lt;/p&gt;&lt;p style=&quot;margin-top: 0pt; margin-bottom: 0pt; margin-left: 0in; direction: ltr; unicode-bidi: embed; word-break: normal;&quot;&gt;&lt;font face=&quot;Aptos&quot;&gt;&lt;span style=&quot;font-size: 11px;&quot;&gt;Person.CoutryRegion&lt;/span&gt;&lt;/font&gt;&lt;/p&gt;&lt;p style=&quot;margin-top: 0pt; margin-bottom: 0pt; margin-left: 0in; direction: ltr; unicode-bidi: embed; word-break: normal;&quot;&gt;&lt;font face=&quot;Aptos&quot;&gt;&lt;span style=&quot;font-size: 11px;&quot;&gt;Sales.SalesTerritory&lt;/span&gt;&lt;/font&gt;&lt;/p&gt;&lt;p style=&quot;margin:0px;margin-left:8px;&quot;&gt;&lt;br&gt;&lt;br&gt;&lt;br&gt;&lt;br&gt;&lt;br&gt;&lt;/p&gt;" style="verticalAlign=top;align=left;overflow=fill;html=1;whiteSpace=wrap;rounded=0;fillColor=none;" parent="1" vertex="1">
          <mxGeometry x="590" y="340" width="160" height="100" as="geometry" />
        </mxCell>
        <mxCell id="kipdyfEvQWOkWlqVfc5R-17" value="" style="edgeStyle=orthogonalEdgeStyle;rounded=0;orthogonalLoop=1;jettySize=auto;html=1;entryX=0.013;entryY=0.78;entryDx=0;entryDy=0;entryPerimeter=0;" parent="1" source="kipdyfEvQWOkWlqVfc5R-10" target="kipdyfEvQWOkWlqVfc5R-1" edge="1">
          <mxGeometry relative="1" as="geometry" />
        </mxCell>
        <mxCell id="kipdyfEvQWOkWlqVfc5R-10" value="&lt;p style=&quot;margin: 4px 0px 0px; text-align: center;&quot;&gt;&lt;b style=&quot;&quot;&gt;&lt;font style=&quot;&quot; color=&quot;#ffffff&quot;&gt;dim_cartao_clientes&lt;/font&gt;&lt;/b&gt;&lt;/p&gt;&lt;hr size=&quot;1&quot; style=&quot;border-style:solid;&quot;&gt;&lt;p style=&quot;margin-top: 0pt; margin-bottom: 0pt; margin-left: 0in; direction: ltr; unicode-bidi: embed; word-break: normal;&quot;&gt;&lt;span style=&quot;font-family: Aptos; font-size: 7pt; background-color: initial;&quot;&gt;HumanResources.Employee&lt;/span&gt;&lt;/p&gt;" style="verticalAlign=top;align=left;overflow=fill;html=1;whiteSpace=wrap;rounded=0;fillColor=none;" parent="1" vertex="1">
          <mxGeometry x="80" y="590" width="160" height="85" as="geometry" />
        </mxCell>
        <mxCell id="kipdyfEvQWOkWlqVfc5R-20" style="edgeStyle=orthogonalEdgeStyle;rounded=0;orthogonalLoop=1;jettySize=auto;html=1;entryX=0.988;entryY=0.793;entryDx=0;entryDy=0;entryPerimeter=0;" parent="1" source="kipdyfEvQWOkWlqVfc5R-7" target="kipdyfEvQWOkWlqVfc5R-1" edge="1">
          <mxGeometry relative="1" as="geometry" />
        </mxCell>
        <mxCell id="kipdyfEvQWOkWlqVfc5R-35" value="" style="html=1;whiteSpace=wrap;fillColor=#66B2FF;fontColor=#ffffff;strokeColor=#001DBC;" parent="1" vertex="1">
          <mxGeometry x="160" y="280" width="30" height="27.5" as="geometry" />
        </mxCell>
        <mxCell id="kipdyfEvQWOkWlqVfc5R-37" value="" style="html=1;whiteSpace=wrap;fillColor=#004E9E;fontColor=#ffffff;strokeColor=#001DBC;" parent="1" vertex="1">
          <mxGeometry x="160" y="310" width="30" height="32.5" as="geometry" />
        </mxCell>
        <mxCell id="kipdyfEvQWOkWlqVfc5R-38" value="Legenda" style="text;strokeColor=none;align=center;fillColor=none;html=1;verticalAlign=middle;whiteSpace=wrap;rounded=0;fontSize=18;fontStyle=0" parent="1" vertex="1">
          <mxGeometry x="80" y="280" width="60" height="30" as="geometry" />
        </mxCell>
        <mxCell id="kipdyfEvQWOkWlqVfc5R-39" value="DimenssÃ£o" style="text;strokeColor=none;align=center;fillColor=none;html=1;verticalAlign=middle;whiteSpace=wrap;rounded=0;fontSize=12;fontStyle=0" parent="1" vertex="1">
          <mxGeometry x="190" y="311.25" width="75" height="30" as="geometry" />
        </mxCell>
        <mxCell id="kipdyfEvQWOkWlqVfc5R-40" value="Fato" style="text;strokeColor=none;align=center;fillColor=none;html=1;verticalAlign=middle;whiteSpace=wrap;rounded=0;fontSize=12;fontStyle=0" parent="1" vertex="1">
          <mxGeometry x="193" y="281.25" width="47" height="30" as="geometry" />
        </mxCell>
        <mxCell id="kipdyfEvQWOkWlqVfc5R-45" value="&lt;span style=&quot;color: rgb(255, 255, 255); font-size: 19px; font-weight: 700; text-wrap-mode: nowrap;&quot;&gt;Diagrama conceitual - Adventure Works&lt;/span&gt;" style="rounded=0;whiteSpace=wrap;html=1;fillColor=#004E9E;" parent="1" vertex="1">
          <mxGeometry x="80" y="200" width="480" height="60" as="geometry" />
        </mxCell>
        <mxCell id="kipdyfEvQWOkWlqVfc5R-46" value="" style="shape=image;verticalLabelPosition=bottom;labelBackgroundColor=default;verticalAlign=top;aspect=fixed;imageAspect=0;image=data:image/png,iVBORw0KGgoAAAANSUhEUgAAAUIAAACcCAMAAAA9MFJFAAAA8FBMVEX///9aXWJXWl9QU1m+v8BmaW3j5ORNUFZTVltSVVvy8vPZ2tt4e3719vZVWF4AnNpsb3Ps7O1qbHBydXmusLIRoNuOkZOlp6kAl9je3t/R0tOwsrSFh4q4ubteYWaSlJcAdLcAf7zs9/zJysuSz+zF5fUAerqp2/EAhsBFSU+Fy+uHiYydn6Ld8PmJwt/W5/LH4O5vttibzORTt+Qeqd9Upc9rwedAmsmRxeCm2PDl9Puy1eh2xulau+WEu9t8ttgekcVurNJYn8xdrtS82Oo7ruA2nsyx4PM7n8zI6feMuNiiyeG10OUAkdY+k8Z4vuaUbdfxAAARxklEQVR4nO1dCXuquBrWoIILKFrrjnuruO9aWqu1ju30Ts///zcXkoBBwXosrV3yPveZmUKI4eXb88F1uSgoKCgoKCgoKCgoKCgoKCgoKCgoKCgoKCgoKCgoLFHqlBRF6XXn7e6802mVSude0PdC6ebf+X2xX3i6v+oXFy+F+euiP+krnXOv65uA73YfrqaF1UOtXXhaFvu12rRwPykohdGyKN9VqTC+hdb0pdhbTFZX7dG8+9LpdErq/7olZdmpPSwLL8m1/IeSeAjKY2ExumovXxSl25qv+otRr9C7+68zvNvILZXe7nooJ2fnXuXXBa/Ma6vitPeoPD4s/y08XtX6xVHvqjdOdpLxSnigjSm1qusxcQmfCmoI8Oda9JdCZzFZPDxOX2avi3lhNSqoAqlMetOHvrxuDddyeKgPvNH+EQiWE42oUGcxoo1MOnC+xX8FdCerYn86nz5dtVXRe532lZIaxpSgdKn/LvE3VWMs78tkoxLHCcBtAAgciOZTZ1v/2dGav47a8/m8ML2qqVHgzaGx6YuYnwEEe1saOaaR/qwlfy2UusXeaD4rPo0e+srm9pDH9SW8gLOiD0Pw58VPW/fXQWe0GM2Wi1HxsSvfbcJrewrLjYP8QXBR3yeu/UuAV2q9dm1Vm86u13I8Pkve2gwUMxIjvMEfVGd3+VNv4OwoLf+Z9F5r3fZDfziU4+Nnm/QjcBHxvyWAOofgV3mV7uRpXmvf91YPxdm6b+tGxAvWToMBUJ2xCrD1MED6RRxOnxaT0ardK7QX7RtbG8hnvJwle4IfSN5YI59IJJqNmNety6kQ+sybOCdK97VerT0t3i/uD1UPPF7GQgKBn/VeZsqE7+CDuazghyf9mY9f/VfAzWgx6U0mo4lSHd7ZjkqFLGJAwEihi5RFVufLS5rLAd5fkamUJovJqnf12L8bjG1LB3xC2PPCgGMjGVtrF8wy6hjm4oNW/aUwWrQXq3lvJCdnY3l2bTmmLO0bQc6bDx6cuKnRHPkFhYfWP4unUa9d6I0r8vVdsmoxhM/vuWHAgIs3Q+dcXR348zO9m3Zt2S8ul6vZZpjchAcW7qTs3hVBwIRyx0yeENxc0+kVfzV0VS8ymkwq1XVcjg9aVflPa2cEn9gVQcB5c8epJx8SQMz5RX8pdGojNZyZDYbjuFzdyINKOLwzIhVhdkSQiR4fqfgEN/vDjWG/tuqNFrLK32wtj5NjNbMzD/B4d0RQkJp/E6c0Ofawz/nu4HuT5f3Vy0y+k9fJ2WC8uW7JAzK7a+4E04Bp/F3OFpQYj7Nr/mLozou93v2kP4xXB7fVTWV4N0sSNS4x6zeLoD/y13yEfnRkWFo+jVb3/VptM65UqndJeZCsDOKycT4VNTMI2Pzf5xoJ9ie75FGt37+avKwqlet4fBYetsa3VcIfeySzEgvRU0K8YD3h2IK/HEovi9HTqj2tJO/k5KD0WKm0xkSO7DGbQcA2TqrkB5ifLIWLSbszuZquB9ebZ3m9ScY38WRFP9lkzSLoPdErBLzOUMj7vqBnLz0+aXvs1ertuqLGM5Xw+lmeYV/CN80JCRc7dSOEDzlDYc7tdWQeZzGtzfuqF6nGk93Bn+pm83ir1xj4S5MMAq55cnzMx44T39J4cLBfLMFG1X9WB+O9DFS9cjej+izwyvx1UgkPquNZ9Xq2XqtqjCkMmIMZ4D4qIbb5lWMpXIe7h85fMBqFasy1tylxMwyfqVlvWZxPisqsIt+2VBP4J7lW4mv0NAMhkxaf5ol18LEjY/Hq88HTiMJWdV/geItjnwKltugq8lqWk8Pr+HojV55dWEUCIVNxVYi9a0+djzmTIyMKvxQ6ymjRTSZn48GstanI22r1jhazl+8r3QeO3IHiPXnNY6U8GIbk4yMNTqPQl8AZOj5a3l4ZzJX1mTzaQ/flPGaUHW+vuC+MNmN5s9kMw6omGzkJv6PF7/WnYv64cYFYXYtaLlgONogxnBcaAL7BMfBvAWgUeuoRER71w6OsFreLkbo2NFEPIXkPSII2U45FV7Ich6b0c04H+YqyWj6vk7e3yeFzeG2Yk6aptsW++1dTR6bIgRAs6WQYb/5SRQP4s9rhC1bIan/nY4hCFpqVHCuELuEw1dGJMRZSyBgUurWZPIzUwFdK2pT5CMc4GVqW5ovlv4VaazhoVWazamk2wNWFBhnNAPf7qyyeI32RTiHbQH+nWbiPn2XwQ0S2EFMYYohHu0ehF1HI4m2bBIOrvlnmSI04Ct1iUVndK5uNPLjV4sIhLtBckHYQ+B2oUyWOtEAGhVn8d92d1swKiy0cSSEfYYmV2UkhG0Fm06AwoT8eR9Dpt+fTTTKpWsGx6pNbg7GiHc6RdhBwTrQVHWtL9yhk7SkMHKbQa0vh5TtvxoRSsTDVNkvubqutVgnHM2nzZrsTtVLfsY/BQQrtpdBRClvLuVKpVm6rlXhcdyUpssgPWEda246OJL6bFLZ6o+5D7eE6mdwMjFbMQMwUUjvTHFg+NrD+bhTOC7VN7Wr+fFcpbYzE6pJksO4Mg/zR03w3RX5ptx8fW7d3z3/CQ73ycWEKZxzqyEodnRF8Nyl03SwKyxlUY/0tkqCzETXG8QWK7yaFrs7kQanK45a8wWocIJ0x52QIeiTsKDw6tMan1Gs+Qwpv+vO+8vDwPF4bWyV5IiLksmdoQLCmUL1tqZnQEBIICpuslIdHm2WDQp8fhNCxz5DCbqHQvr8qtNScBB/JEFkJiJzjjRG9zFA3shNOo1DVZASG0Qr/nnoUlhmy+ChRZnDl/PpQDpYZ6rg9tFmPoCkTdeeyk85o1e3P2zfXuhqLhAyeqcecz8FUMJjAVo5PXMAnyacvMLTSeSqBGqL4dMY4hq9U7yKHR2ZEYqgrfYGL7umEk29xKIta9W4Y15ffIOIZ/y97W+RUzItFZRDXvXGGEMIf3b/hHFqPU6XdrzzrauzeemPu17zm8D68FK6U0VVR//NyK4TncSXfEN3F4rFXK+C/0oQaO1Nb+BXojualKtpz4iOEGv/k/heH8b9CoT9O/qf9Z27rjYXYqbt1P7wZeB+ljtL+t3t9q32oIkD4EtYmIkyjXURLfvlgLh/yeqOhfCa9T2QQXWk2sDubk+ngzsTi7vbldg6fxXTkrKodKqPhO7eCb8H6/k5Aa1G7f3x9ha+YXGx37ASb4oKa1TMqWItwJ5CJSPDlTyAInDuS2GU5hK405dy8xJDggBTN5sgLg3VmHyysWHi0U5ZbIGU4SE3lyugnQ6al+IB20MFWx9Kq9tq9KvS1ubeVatsXlTw4+wP765ZMTYiA8Zq7b9L4LEPOzO92wLsBYNwE+0HWvQ8BUcjYOD0+qk0KtJCswe3Ht1ntGDjZTllCUV76WhsQ0QTnt6tM6be823jOX+6/FOXPk2xlsZ01bYLvUwh/fVsmf5NCEN3jIoFOaBSKqDtXItr5yuDgDZ6GUaGm1Vp54h7syhjGHQFzBYc3Okc0RdZpIWNz0biSfP7WFKrsX5h/EJjgJyh07/Ul+BBtkEK8kysQ1gMGHVz2FKLswLf6DyOtoyyxrdBIdk2Y2wSaMT3GLBZgVX1D2WwMoKk4aWvstxU0skSqUyghAONDD7qxRRSCSIxEBHYiYAr3HB9SXkyhKwZ/YKvusEMDeB393AZfm7xoX+8JxAyBsA0JU2hxxAoRMujOARcr+wI8H0glOPWIP7RdKLKz6MoI8ePocEz0QaTKDYBJFNBNIwqZckAkATVAp1Awe5Q0PowXmPYj0cdKk5LgfA531KxqC3JFh969hukfCMFlcNumFKykQNo6kMAlw4UIXYfOHoRIdjRgConHEcDiCiR4NaLQ8q0pY8F+0m8ZkqBPiiy8ru4h9HL5m6T8HUo3sDE0uhVCu/0mEQ0JZoFZVLEfEkjd5psN0loCxF1euwNha2n3KTRqRWgVx1CI2UYw2lj0SQP4kUCbUkae5mNS15Th+oBkNwYuTwip4RYcqBs6HAxxB1qI4e2q2pSCN8gY1suKQu21W0MXjqGQfJqB7W3ok6IqPFT3APIljjYybLGNaGw/QyHCBajhDFIWwxXiR3tgl4UPaRf4E6rnNt+DJYXYx8AA+igK3W7j/NZrGZOiH4ei14Rs+j+mArV1JiBq9wse1o3jsAvOTZhMtOxDrygiE6/pUs4P5Vz3M5YU4tjArz0iM4U3s+vr6xluWiEoNF50TiMBNlGoZjhIql0+OJn/gwrJQSOi4Wx/IWLInugmNReVd+oHygtQDlBwhnReF2BrCn2coXpmCqvJeDwexq8UIQqha3MzeClwOim0Mym0wKq6w5AMhD6oDrLV47qdO0YZmgDtGEw19EgBOSJbC6raWSQW0NtAkTUcAKJw9ytAIg51XHsUhvcojKAoAeUoUMaFRo4zU4iNNdKz+kd9IMLQCcF26x3RhhaGhBYHrEhPDjThI9qQsvkkUmqspTCwFaO3KAReEXZQ+fMuPS+RRHSGmDTHHnF/70TKiGhsk0ekXXhPD98kSpOENygUSV1DDkXP8mwojB0thcDLl9Hvp/CjUk1obpdCfmvpbROv98JoabW3FDisxqdzyJZDvpGaMLaTJ0zOJw1JweG1NYUiXopr3xaGw+GkmcKAq4FjrTQKm/l9Cl1pXULYD/vqVV7PTf12qQ+yJ0bUzcNbQw03KGhg7R5vwGsKgVxugjVrCpEDhypnprB1K6vAn88xKET668+ggMnjsqBQD3aEj/IlREhjSwQKNLaf+EBrYrUAKMEdJB9JuN+YGGUfsOXDhkLU3Qg1/624EAo3Cp5hgQi6cQsKRexRPuwtXNEwFXbZI6qEEW1eqIEO5gU4GLPZM0V2aM8/IrNuSSEqZrgZ+B7TMRS6ItsCknaRBYUovrZPvN4NowxoW6NBto/8YhRyC1ocjmV4p8jow2KHbB/5xgCyGtCuW1HIo+IsMrvHUWjs3aLX7i0pFD6WQqMLRLBJwLGPJAuVKFGG2aCHxfwThiYVldBciGpy+wLRAsMQCwpF/NYaWspxFOphLf6Zc1CoB9bAa7NvhwIHcw6HrtAWpRdOhayhyzkvAFBmg6gyZkp5kNRyvBWFnihSSg6FkUdSiMttuJp7Dgr1YrTtR7XwFr36X88VDZpTRGUluOogjvwFNpQLpoLBJtyKguV7VEOGbkjWrtxoN8/ptGIKo6i97SIRYvEelp6pY4nNpE2AD5qkEE0pYC05B4Uh/XurNmUgVAmDccm1FpqFtZdFUZ6BCjQZPeUXGEGSOF2o62KAMeblYVD3R/0vMaqH11h+AYdhuDU9wsdWWu+4xM2YsE5tolD7qBqQsLCeg0K93GpXYsAOQHv41zBBgO/bItmFDahqXGHxZVJ3DpeXoErz8EqNQnxUtQs2209cRNdc6x086M1NFKpu3CvpYdU5KNRbaRhrb4I2HNAeBUEhzjOQ9pS9Ox+kcnOqP0ElRhTQEhT6kH+PWVPIuRuG8zmaQpe+peI6L4U2X3ZrMtrWI+ohIChUwzF4HEUvYlMgtpIBxzZFTcHhCJge80mDQjUn045zad4LdsAxfvKbpkF2d4A2BtobDzwlWRSWctqvCrsUwtHv4+kADAqtW2W8ECg3Iin0SNpxQ3/EZkgSGNWiMZwUa0Jio+hS1BO9lUJVZuGVzUDMa0IslDe36wTd3n1IUArL8NetuhLQukxbxXwDXhnZH+wQsocpRDuUyEXeVDW09k9ABNOeRCLhKevfZjYN2L/ShwcY2Pt93mcFkThlseDA7rJUiLajnYH+yp01hRRHQG9koBSejDT2eyztrj4VeqWG/fkfnv4o4K3WA7t3FG8Bt1F82N7ML0AKF4sc+qjWr4T+LQZqDE9GGbeM0pdNTgfe4qJhzekQWSqG74UHl4vpm3enA724A9xUlU9Hwo/q8b/u/3zSQeTcqCvlC354+9sgGGG1nTeQoBH2yeBzUU2bOW9mzyIGqI08EqInyjKCwEj53HZbPhDMedLURB4PUXurGNRVgGj0MtvI5zPUOv41Ar5UMJjLeNLpYEqkhpGCgoKCgoKCgoKCgoKCgoKCgoKCgoKCgoKCgoKCgoLCUfwfjY2rdgXzru4AAAAASUVORK5CYII=;" parent="1" vertex="1">
          <mxGeometry x="570" y="200" width="200" height="96.89" as="geometry" />
        </mxCell>
      </root>
    </mxGraphModel>
  </diagram>
</mxfile>
